<?xml version="1.0" encoding="UTF-8" standalone="no"?>
<!-- Created with Inkscape (http://www.inkscape.org/) -->

<svg
   width="297mm"
   height="210mm"
   viewBox="0 0 297 210"
   version="1.1"
   id="svg5"
   inkscape:version="1.2.2 (732a01da63, 2022-12-09)"
   sodipodi:docname="viharjelzes.svg"
   xmlns:inkscape="http://www.inkscape.org/namespaces/inkscape"
   xmlns:sodipodi="http://sodipodi.sourceforge.net/DTD/sodipodi-0.dtd"
   xmlns="http://www.w3.org/2000/svg"
   xmlns:svg="http://www.w3.org/2000/svg">
  <sodipodi:namedview
     id="namedview7"
     pagecolor="#ffffff"
     bordercolor="#000000"
     borderopacity="0.25"
     inkscape:showpageshadow="2"
     inkscape:pageopacity="0.0"
     inkscape:pagecheckerboard="0"
     inkscape:deskcolor="#d1d1d1"
     inkscape:document-units="mm"
     showgrid="false"
     inkscape:zoom="1"
     inkscape:cx="639"
     inkscape:cy="467"
     inkscape:window-width="1920"
     inkscape:window-height="1017"
     inkscape:window-x="-8"
     inkscape:window-y="-8"
     inkscape:window-maximized="1"
     inkscape:current-layer="layer1" />
  <defs
     id="defs2">
    <pattern
       id="EMFhbasepattern"
       patternUnits="userSpaceOnUse"
       width="6"
       height="6"
       x="0"
       y="0" />
    <pattern
       id="EMFhbasepattern-8"
       patternUnits="userSpaceOnUse"
       width="6"
       height="6"
       x="0"
       y="0" />
  </defs>
  <g
     inkscape:label="Réteg 1"
     inkscape:groupmode="layer"
     id="layer1">
    <path
       style="fill:#364860;fill-opacity:1;fill-rule:evenodd;stroke:none;stroke-width:0.264583"
       d="M 0,0 V 209.96242 H 296.99524 V 0 Z"
       id="path412" />
    <text
       xml:space="preserve"
       style="font-style:normal;font-variant:normal;font-weight:400;font-size:20.654px;line-height:125%;font-family:'Open Sans';text-align:start;letter-spacing:0px;word-spacing:0px;text-anchor:start;fill:#000000;fill-opacity:1;stroke:none;stroke-width:0.264583"
       x="87.780144"
       y="56.006367"
       id="text418"><tspan
         sodipodi:role="line"
         x="87.780144"
         y="56.006367"
         id="tspan416"
         style="stroke-width:0.264583"><tspan
           dx="0"
           dy="0"
           style="font-style:normal;font-variant:normal;font-weight:400;font-size:20.654px;font-family:'Open Sans';fill:#c48888;stroke-width:0.264583"
           id="tspan414">VIHARJELZÉS</tspan></tspan></text>
    <path
       style="fill:none;stroke:#c8d7d7;stroke-width:3.00551px;stroke-linecap:butt;stroke-linejoin:miter;stroke-miterlimit:8;stroke-dasharray:none;stroke-opacity:1"
       d="m 39.431454,90.77912 h 72.724886 v 24.46739 H 39.431454 Z"
       id="path420" />
    <text
       xml:space="preserve"
       style="font-style:normal;font-variant:normal;font-weight:400;font-size:6.8957px;line-height:125%;font-family:'Open Sans';text-align:start;letter-spacing:0px;word-spacing:0px;text-anchor:start;fill:#000000;fill-opacity:1;stroke:none;stroke-width:0.264583"
       x="60.799812"
       y="105.35879"
       id="text426"><tspan
         sodipodi:role="line"
         x="60.799812"
         y="105.35879"
         id="tspan424"
         style="stroke-width:0.264583"><tspan
           dx="0"
           dy="0"
           style="font-style:normal;font-variant:normal;font-weight:400;font-size:6.8957px;font-family:'Open Sans';fill:#ffffff;stroke-width:0.264583"
           id="tspan422">FOKOZAT</tspan></tspan></text>
    <path
       style="fill:none;stroke:#c8d7d7;stroke-width:3.00551px;stroke-linecap:butt;stroke-linejoin:miter;stroke-miterlimit:8;stroke-dasharray:none;stroke-opacity:1"
       d="m 112.15634,90.77912 h 72.72489 v 24.46739 h -72.72489 z"
       id="path428" />
    <text
       xml:space="preserve"
       style="font-style:normal;font-variant:normal;font-weight:400;font-size:6.8957px;line-height:125%;font-family:Arial;text-align:start;letter-spacing:0px;word-spacing:0px;text-anchor:start;fill:#000000;fill-opacity:1;stroke:none;stroke-width:0.264583"
       x="140.25885"
       y="105.35876"
       id="text434"><tspan
         sodipodi:role="line"
         x="140.25885"
         y="105.35876"
         id="tspan432"
         style="stroke-width:0.264583"><tspan
           dx="0"
           dy="0"
           style="font-style:normal;font-variant:normal;font-weight:400;font-size:6.8957px;font-family:Arial;fill:#ffffff;stroke-width:0.264583"
           id="tspan430">FÉNY</tspan></tspan></text>
    <path
       style="fill:none;stroke:#c8d7d7;stroke-width:3.00551px;stroke-linecap:butt;stroke-linejoin:miter;stroke-miterlimit:8;stroke-dasharray:none;stroke-opacity:1"
       d="m 184.88123,90.77912 h 72.72489 v 24.46739 h -72.72489 z"
       id="path436" />
    <text
       xml:space="preserve"
       style="font-style:normal;font-variant:normal;font-weight:400;font-size:6.8957px;line-height:125%;font-family:'Open Sans';text-align:start;letter-spacing:0px;word-spacing:0px;text-anchor:start;fill:#000000;fill-opacity:1;stroke:none;stroke-width:0.264583"
       x="202.48911"
       y="105.35876"
       id="text442"><tspan
         sodipodi:role="line"
         x="202.48911"
         y="105.35876"
         id="tspan440"
         style="stroke-width:0.264583"><tspan
           dx="0"
           dy="0"
           style="font-style:normal;font-variant:normal;font-weight:400;font-size:6.8957px;font-family:'Open Sans';fill:#ffffff;stroke-width:0.264583"
           id="tspan438">SZABÁLYOK</tspan></tspan></text>
    <path
       style="fill:none;stroke:#c8d7d7;stroke-width:3.00551px;stroke-linecap:butt;stroke-linejoin:miter;stroke-miterlimit:8;stroke-dasharray:none;stroke-opacity:1"
       d="m 39.431454,115.24651 h 72.724886 v 24.42507 H 39.431454 Z"
       id="path444" />
    <text
       xml:space="preserve"
       style="font-style:normal;font-variant:normal;font-weight:400;font-size:13.7583px;line-height:125%;font-family:Arial;text-align:start;letter-spacing:0px;word-spacing:0px;text-anchor:start;fill:#000000;fill-opacity:1;stroke:none;stroke-width:0.264583"
       x="73.837807"
       y="132.15131"
       id="text450"><tspan
         sodipodi:role="line"
         x="73.837807"
         y="132.15131"
         id="tspan448"
         style="stroke-width:0.264583"><tspan
           dx="0"
           dy="0"
           style="font-style:normal;font-variant:normal;font-weight:400;font-size:13.7583px;font-family:Arial;fill:#ffffff;stroke-width:0.264583"
           id="tspan446">I</tspan></tspan></text>
    <path
       style="fill:none;stroke:#c8d7d7;stroke-width:3.00551px;stroke-linecap:butt;stroke-linejoin:miter;stroke-miterlimit:8;stroke-dasharray:none;stroke-opacity:1"
       d="m 112.15634,115.24651 h 72.72489 v 24.42507 h -72.72489 z"
       id="path452" />
    <text
       xml:space="preserve"
       style="font-style:normal;font-variant:normal;font-weight:400;font-size:6.8957px;line-height:125%;font-family:'Open Sans';text-align:start;letter-spacing:0px;word-spacing:0px;text-anchor:start;fill:#000000;fill-opacity:1;stroke:none;stroke-width:0.264583"
       x="135.00893"
       y="129.8019"
       id="text458"><tspan
         sodipodi:role="line"
         x="135.00893"
         y="129.8019"
         id="tspan456"
         style="stroke-width:0.264583"><tspan
           dx="0"
           dy="0"
           style="font-style:normal;font-variant:normal;font-weight:400;font-size:6.8957px;font-family:'Open Sans';fill:#ffffff;stroke-width:0.264583"
           id="tspan454">45/PERC</tspan></tspan></text>
    <path
       style="fill:none;stroke:#c8d7d7;stroke-width:3.00551px;stroke-linecap:butt;stroke-linejoin:miter;stroke-miterlimit:8;stroke-dasharray:none;stroke-opacity:1"
       d="m 184.88123,115.24651 h 72.72489 v 24.42507 h -72.72489 z"
       id="path460" />
    <text
       xml:space="preserve"
       style="font-style:normal;font-variant:normal;font-weight:400;font-size:5.15938px;line-height:125%;font-family:Arial;text-align:start;letter-spacing:0px;word-spacing:0px;text-anchor:start;fill:#000000;fill-opacity:1;stroke:none;stroke-width:0.264583"
       x="207.86427"
       y="121.36896"
       id="text466"><tspan
         sodipodi:role="line"
         x="207.86427"
         y="121.36896"
         id="tspan464"
         style="stroke-width:0.264583"><tspan
           dx="0"
           dy="0"
           style="font-style:normal;font-variant:normal;font-weight:400;font-size:5.15938px;font-family:Arial;fill:#ffffff;stroke-width:0.264583"
           id="tspan462">max</tspan></tspan></text>
    <text
       xml:space="preserve"
       style="font-style:normal;font-variant:normal;font-weight:400;font-size:5.15938px;line-height:125%;font-family:'Open Sans';text-align:start;letter-spacing:0px;word-spacing:0px;text-anchor:start;fill:#000000;fill-opacity:1;stroke:none;stroke-width:0.264583"
       x="218.2354"
       y="121.36896"
       id="text472"><tspan
         sodipodi:role="line"
         x="218.2354"
         y="121.36896"
         id="tspan470"
         style="stroke-width:0.264583"><tspan
           dx="0"
           dy="0"
           style="font-style:normal;font-variant:normal;font-weight:400;font-size:5.15938px;font-family:'Open Sans';fill:#ffffff;stroke-width:0.264583"
           id="tspan468">. 500m</tspan></tspan></text>
    <path
       style="fill:none;stroke:#c8d7d7;stroke-width:3.00551px;stroke-linecap:butt;stroke-linejoin:miter;stroke-miterlimit:8;stroke-dasharray:none;stroke-opacity:1"
       d="m 39.431454,139.67158 h 72.724886 v 24.42506 H 39.431454 Z"
       id="path474" />
    <text
       xml:space="preserve"
       style="font-style:normal;font-variant:normal;font-weight:400;font-size:13.7583px;line-height:125%;font-family:Arial;text-align:start;letter-spacing:0px;word-spacing:0px;text-anchor:start;fill:#000000;fill-opacity:1;stroke:none;stroke-width:0.264583"
       x="71.926277"
       y="156.59445"
       id="text480"><tspan
         sodipodi:role="line"
         x="71.926277"
         y="156.59445"
         id="tspan478"
         style="stroke-width:0.264583"><tspan
           dx="0"
           dy="0"
           style="font-style:normal;font-variant:normal;font-weight:400;font-size:13.7583px;font-family:Arial;fill:#ffffff;stroke-width:0.264583"
           id="tspan476">II</tspan></tspan></text>
    <path
       style="fill:none;stroke:#c8d7d7;stroke-width:3.00551px;stroke-linecap:butt;stroke-linejoin:miter;stroke-miterlimit:8;stroke-dasharray:none;stroke-opacity:1"
       d="m 112.15634,139.67158 h 72.72489 v 24.42506 h -72.72489 z"
       id="path482" />
    <text
       xml:space="preserve"
       style="font-style:normal;font-variant:normal;font-weight:400;font-size:6.8957px;line-height:125%;font-family:'Open Sans';text-align:start;letter-spacing:0px;word-spacing:0px;text-anchor:start;fill:#000000;fill-opacity:1;stroke:none;stroke-width:0.264583"
       x="135.00317"
       y="154.24504"
       id="text488"><tspan
         sodipodi:role="line"
         x="135.00317"
         y="154.24504"
         id="tspan486"
         style="stroke-width:0.264583"><tspan
           dx="0"
           dy="0"
           style="font-style:normal;font-variant:normal;font-weight:400;font-size:6.8957px;font-family:'Open Sans';fill:#ffffff;stroke-width:0.264583"
           id="tspan484">90/PERC</tspan></tspan></text>
    <path
       style="fill:none;stroke:#c8d7d7;stroke-width:3.00551px;stroke-linecap:butt;stroke-linejoin:miter;stroke-miterlimit:8;stroke-dasharray:none;stroke-opacity:1"
       d="m 184.88123,139.67158 h 72.72489 v 24.42506 h -72.72489 z"
       id="path490" />
    <path
       style="fill:none;stroke:#c48888;stroke-width:1.01595px;stroke-linecap:butt;stroke-linejoin:miter;stroke-miterlimit:8;stroke-dasharray:none;stroke-opacity:1"
       d="m 246.3037,126.35843 -4.84691,3.39708"
       id="path492" />
    <path
       style="fill:none;stroke:#c48888;stroke-width:1.01595px;stroke-linecap:butt;stroke-linejoin:miter;stroke-miterlimit:8;stroke-dasharray:none;stroke-opacity:1"
       d="m 226.81021,129.70259 h 14.85823"
       id="path494" />
    <path
       style="fill:none;stroke:#c48888;stroke-width:0.994782px;stroke-linecap:butt;stroke-linejoin:miter;stroke-miterlimit:8;stroke-dasharray:none;stroke-opacity:1"
       d="m 240.53609,124.79218 c 0.87837,-0.49739 2.00014,-0.20107 2.49753,0.6773 0.50798,0.86779 0.21166,1.98956 -0.66671,2.49754 -0.86779,0.49739 -1.98957,0.20107 -2.49754,-0.6773 -0.50797,-0.86779 -0.20107,-1.98957 0.66672,-2.49754"
       id="path496" />
    <path
       style="fill:none;stroke:#c48888;stroke-width:1.01595px;stroke-linecap:butt;stroke-linejoin:miter;stroke-miterlimit:8;stroke-dasharray:none;stroke-opacity:1"
       d="m 232.44026,128.39033 h 6.66715"
       id="path498" />
    <path
       style="fill:none;stroke:#c48888;stroke-width:1.01595px;stroke-linecap:butt;stroke-linejoin:miter;stroke-miterlimit:8;stroke-dasharray:none;stroke-opacity:1"
       d="m 227.57218,128.39033 h 1.62974"
       id="path500" />
    <path
       style="fill:none;stroke:#c48888;stroke-width:1.01595px;stroke-linecap:butt;stroke-linejoin:miter;stroke-miterlimit:8;stroke-dasharray:none;stroke-opacity:1"
       d="m 230.40836,125.25782 2.35996,3.323"
       id="path502" />
    <path
       style="fill:none;stroke:#c48888;stroke-width:1.01595px;stroke-linecap:butt;stroke-linejoin:miter;stroke-miterlimit:8;stroke-dasharray:none;stroke-opacity:1"
       d="m 230.77876,125.25782 -2.14831,3.323"
       id="path504" />
    <path
       style="fill:none;stroke:#c48888;stroke-width:1.01595px;stroke-linecap:butt;stroke-linejoin:miter;stroke-miterlimit:8;stroke-dasharray:none;stroke-opacity:1"
       d="m 234.89546,126.35843 4.06379,2.00015"
       id="path506" />
    <path
       style="fill:none;stroke:#c48888;stroke-width:1.01595px;stroke-linecap:butt;stroke-linejoin:miter;stroke-miterlimit:8;stroke-dasharray:none;stroke-opacity:1"
       d="m 233.62553,124.11488 1.57683,2.56104"
       id="path508" />
    <path
       style="fill:none;stroke:#6ebec3;stroke-width:0.76196px;stroke-linecap:butt;stroke-linejoin:miter;stroke-miterlimit:8;stroke-dasharray:none;stroke-opacity:1"
       d="m 229.90039,132.08372 c 0.9207,0.93128 1.8414,1.87315 2.7621,1.85198 0.91012,-0.0106 1.82024,-1.93664 2.75153,-1.94723 0.93128,0 1.95781,1.9049 2.83619,1.9049 0.87836,0 1.58741,-1.91548 2.41287,-1.9049 0.82546,0.0212 2.06364,1.70383 2.52929,1.98957"
       id="path510" />
    <path
       style="fill:none;stroke:#6ebec3;stroke-width:0.76196px;stroke-linecap:butt;stroke-linejoin:miter;stroke-miterlimit:8;stroke-dasharray:none;stroke-opacity:1"
       d="m 229.90039,134.45426 c 0.9207,0.93129 1.8414,1.87315 2.7621,1.85199 0.91012,-0.0106 1.82024,-1.93665 2.75153,-1.94723 0.93128,0 1.95781,1.9049 2.83619,1.9049 0.87836,0 1.58741,-1.91549 2.41287,-1.9049 0.82546,0.0212 2.06364,1.70383 2.52929,1.98956"
       id="path512" />
    <path
       style="fill:none;stroke:#6ebec3;stroke-width:0.76196px;stroke-linecap:butt;stroke-linejoin:miter;stroke-miterlimit:8;stroke-dasharray:none;stroke-opacity:1"
       d="m 195.48518,131.57575 c 0.9207,0.93128 1.8414,1.87315 2.7621,1.85198 0.91012,-0.0106 1.82024,-1.93665 2.75153,-1.94723 0.93128,0 1.95781,1.9049 2.83618,1.9049 0.87837,0 1.58742,-1.91548 2.41288,-1.9049 0.82545,0.0212 2.06364,1.70383 2.52928,1.98956"
       id="path514" />
    <path
       style="fill:none;stroke:#6ebec3;stroke-width:0.76196px;stroke-linecap:butt;stroke-linejoin:miter;stroke-miterlimit:8;stroke-dasharray:none;stroke-opacity:1"
       d="m 195.48518,133.94629 c 0.9207,0.93128 1.8414,1.87315 2.7621,1.85199 0.91012,-0.0106 1.82024,-1.93665 2.75153,-1.94724 0.93128,0 1.95781,1.90491 2.83618,1.90491 0.87837,0 1.58742,-1.91549 2.41288,-1.90491 0.82545,0.0212 2.06364,1.70383 2.52928,1.98957"
       id="path516" />
    <path
       style="fill:none;stroke:#c48888;stroke-width:0.994782px;stroke-linecap:butt;stroke-linejoin:miter;stroke-miterlimit:8;stroke-dasharray:none;stroke-opacity:1"
       d="m 200.09927,124.1678 3.5029,6.07451"
       id="path518" />
    <path
       style="fill:none;stroke:#c48888;stroke-width:0.994782px;stroke-linecap:butt;stroke-linejoin:miter;stroke-miterlimit:8;stroke-dasharray:none;stroke-opacity:1"
       d="m 198.07796,129.60735 3.8733,-2.23297"
       id="path520" />
    <path
       style="fill:none;stroke:#c48888;stroke-width:0.994782px;stroke-linecap:butt;stroke-linejoin:miter;stroke-miterlimit:8;stroke-dasharray:none;stroke-opacity:1"
       d="m 200.28976,124.50644 3.8733,-2.24355"
       id="path522" />
    <path
       style="fill:none;stroke:#c48888;stroke-width:0.994782px;stroke-linecap:butt;stroke-linejoin:miter;stroke-miterlimit:8;stroke-dasharray:none;stroke-opacity:1"
       d="m 203.87732,124.14663 c 0.86779,-0.50797 1.98957,-0.20107 2.49754,0.66672 0.49739,0.87837 0.20107,1.98956 -0.66672,2.49753 -0.87837,0.50798 -2.00014,0.21166 -2.49753,-0.66671 -0.50798,-0.87837 -0.21166,-1.98956 0.66671,-2.49754"
       id="path524" />
    <path
       style="fill:none;stroke:#c48888;stroke-width:1.01595px;stroke-linecap:butt;stroke-linejoin:miter;stroke-miterlimit:8;stroke-dasharray:none;stroke-opacity:1"
       d="m 245.83806,148.37062 -4.84691,3.39708"
       id="path526" />
    <path
       style="fill:none;stroke:#c48888;stroke-width:1.01595px;stroke-linecap:butt;stroke-linejoin:miter;stroke-miterlimit:8;stroke-dasharray:none;stroke-opacity:1"
       d="M 226.34457,151.71478 H 241.2028"
       id="path528" />
    <path
       style="fill:none;stroke:#c48888;stroke-width:0.994782px;stroke-linecap:butt;stroke-linejoin:miter;stroke-miterlimit:8;stroke-dasharray:none;stroke-opacity:1"
       d="m 240.08103,146.80437 c 0.87837,-0.49739 1.98956,-0.20107 2.49753,0.6773 0.50798,0.86779 0.20108,1.98956 -0.66671,2.49753 -0.87837,0.4974 -1.98957,0.20108 -2.49754,-0.67729 -0.50797,-0.86779 -0.21165,-1.98957 0.66672,-2.49754"
       id="path530" />
    <path
       style="fill:none;stroke:#c48888;stroke-width:1.01595px;stroke-linecap:butt;stroke-linejoin:miter;stroke-miterlimit:8;stroke-dasharray:none;stroke-opacity:1"
       d="m 231.97461,150.40252 h 6.66716"
       id="path532" />
    <path
       style="fill:none;stroke:#c48888;stroke-width:1.01595px;stroke-linecap:butt;stroke-linejoin:miter;stroke-miterlimit:8;stroke-dasharray:none;stroke-opacity:1"
       d="m 227.10653,150.40252 h 1.62975"
       id="path534" />
    <path
       style="fill:none;stroke:#c48888;stroke-width:1.01595px;stroke-linecap:butt;stroke-linejoin:miter;stroke-miterlimit:8;stroke-dasharray:none;stroke-opacity:1"
       d="m 229.94272,147.27001 2.35996,3.323"
       id="path536" />
    <path
       style="fill:none;stroke:#c48888;stroke-width:1.01595px;stroke-linecap:butt;stroke-linejoin:miter;stroke-miterlimit:8;stroke-dasharray:none;stroke-opacity:1"
       d="m 230.31312,147.27001 -2.14831,3.323"
       id="path538" />
    <path
       style="fill:none;stroke:#c48888;stroke-width:1.01595px;stroke-linecap:butt;stroke-linejoin:miter;stroke-miterlimit:8;stroke-dasharray:none;stroke-opacity:1"
       d="m 234.42982,148.37062 4.06379,2.00015"
       id="path540" />
    <path
       style="fill:none;stroke:#c48888;stroke-width:1.01595px;stroke-linecap:butt;stroke-linejoin:miter;stroke-miterlimit:8;stroke-dasharray:none;stroke-opacity:1"
       d="m 233.15988,146.12707 1.57684,2.56104"
       id="path542" />
    <path
       style="fill:none;stroke:#6ebec3;stroke-width:0.76196px;stroke-linecap:butt;stroke-linejoin:miter;stroke-miterlimit:8;stroke-dasharray:none;stroke-opacity:1"
       d="m 229.43475,154.09591 c 0.9207,0.93128 1.8414,1.87315 2.7621,1.85199 0.91012,-0.0106 1.82024,-1.93665 2.75152,-1.94724 0.93129,0 1.95782,1.9049 2.83619,1.9049 0.87837,0 1.58742,-1.91548 2.41288,-1.9049 0.82545,0.0212 2.06364,1.70383 2.52928,1.98957"
       id="path544" />
    <path
       style="fill:none;stroke:#6ebec3;stroke-width:0.76196px;stroke-linecap:butt;stroke-linejoin:miter;stroke-miterlimit:8;stroke-dasharray:none;stroke-opacity:1"
       d="m 229.43475,156.46645 c 0.9207,0.93129 1.8414,1.87315 2.7621,1.85199 0.91012,-0.0106 1.82024,-1.93665 2.75152,-1.94723 0.93129,0 1.95782,1.9049 2.83619,1.9049 0.87837,0 1.58742,-1.91549 2.41288,-1.9049 0.82545,0.0212 2.06364,1.70382 2.52928,1.98956"
       id="path546" />
    <path
       style="fill:none;stroke:#6ebec3;stroke-width:0.76196px;stroke-linecap:butt;stroke-linejoin:miter;stroke-miterlimit:8;stroke-dasharray:none;stroke-opacity:1"
       d="m 195.01953,153.58794 c 0.9207,0.93128 1.84141,1.87315 2.76211,1.85198 0.91012,-0.0106 1.82024,-1.93665 2.75152,-1.94723 0.93129,0 1.95782,1.9049 2.83619,1.9049 0.87837,0 1.58742,-1.91548 2.41287,-1.9049 0.82546,0.0212 2.06365,1.70383 2.52929,1.98956"
       id="path548" />
    <path
       style="fill:none;stroke:#6ebec3;stroke-width:0.76196px;stroke-linecap:butt;stroke-linejoin:miter;stroke-miterlimit:8;stroke-dasharray:none;stroke-opacity:1"
       d="m 195.01953,155.95848 c 0.9207,0.93128 1.84141,1.87315 2.76211,1.85199 0.91012,-0.0106 1.82024,-1.93665 2.75152,-1.94724 0.93129,0 1.95782,1.9049 2.83619,1.9049 0.87837,0 1.58742,-1.91548 2.41287,-1.9049 0.82546,0.0212 2.06365,1.70383 2.52929,1.98957"
       id="path550" />
    <path
       style="fill:none;stroke:#c48888;stroke-width:0.994782px;stroke-linecap:butt;stroke-linejoin:miter;stroke-miterlimit:8;stroke-dasharray:none;stroke-opacity:1"
       d="m 199.64421,146.17999 3.5029,6.07451"
       id="path552" />
    <path
       style="fill:none;stroke:#c48888;stroke-width:0.994782px;stroke-linecap:butt;stroke-linejoin:miter;stroke-miterlimit:8;stroke-dasharray:none;stroke-opacity:1"
       d="m 197.61231,151.61954 3.8733,-2.23297"
       id="path554" />
    <path
       style="fill:none;stroke:#c48888;stroke-width:0.994782px;stroke-linecap:butt;stroke-linejoin:miter;stroke-miterlimit:8;stroke-dasharray:none;stroke-opacity:1"
       d="m 199.8347,146.51863 3.8733,-2.24355"
       id="path556" />
    <path
       style="fill:none;stroke:#c48888;stroke-width:0.994782px;stroke-linecap:butt;stroke-linejoin:miter;stroke-miterlimit:8;stroke-dasharray:none;stroke-opacity:1"
       d="m 203.41168,146.15882 c 0.87837,-0.50797 2.00015,-0.20107 2.49754,0.66672 0.50797,0.87837 0.21165,1.98956 -0.66672,2.49753 -0.86779,0.50798 -1.98956,0.21166 -2.49753,-0.66671 -0.4974,-0.87837 -0.20108,-1.98957 0.66671,-2.49754"
       id="path558" />
    <path
       style="fill:none;stroke:#c48888;stroke-width:1.98956px;stroke-linecap:butt;stroke-linejoin:miter;stroke-miterlimit:8;stroke-dasharray:none;stroke-opacity:1"
       d="m 192.16218,151.60895 c 0,-5.14323 4.1802,-9.31285 9.33402,-9.31285 5.1644,0 9.33401,4.16962 9.33401,9.31285 0,5.14324 -4.16961,9.31286 -9.33401,9.31286 -5.15382,0 -9.33402,-4.16962 -9.33402,-9.31286"
       id="path560" />
    <path
       style="fill:none;stroke:#c48888;stroke-width:1.98956px;stroke-linecap:butt;stroke-linejoin:miter;stroke-miterlimit:8;stroke-dasharray:none;stroke-opacity:1"
       d="m 194.9137,145.0053 13.18615,13.18615"
       id="path562" />
    <path
       style="fill:none;stroke:#c48888;stroke-width:1.98956px;stroke-linecap:butt;stroke-linejoin:miter;stroke-miterlimit:8;stroke-dasharray:none;stroke-opacity:1"
       d="m 227.1277,151.88411 c 0,-5.15382 4.16962,-9.33402 9.31285,-9.33402 5.14323,0 9.31285,4.1802 9.31285,9.33402 0,5.1644 -4.16962,9.33401 -9.31285,9.33401 -5.14323,0 -9.31285,-4.16961 -9.31285,-9.33401"
       id="path564" />
    <path
       style="fill:none;stroke:#c48888;stroke-width:1.98956px;stroke-linecap:butt;stroke-linejoin:miter;stroke-miterlimit:8;stroke-dasharray:none;stroke-opacity:1"
       d="m 229.83689,145.30161 13.18615,13.18615"
       id="path566" />
  </g>
</svg>
